<svg xmlns="http://www.w3.org/2000/svg" width="1536" height="1024">
  <path d="M0 0h1536v1024H0z" fill="#050508"/>
  <path d="M824 378c81.226 0 81.226 0 91.938 5.625l2.07 1.07C932.004 392.112 941.01 400.712 946 416c3.7 13.19 1.122 26.825-5.422 38.547-1.415 2.267-2.92 4.358-4.578 6.453l-1.445 1.86c-5.265 5.979-12.438 8.893-19.555 12.14l2.438 2.625c8.867 10.448 15.256 22.959 22.019 34.802 4.147 7.238 8.449 14.306 13.102 21.23C954 536 954 536 954 538a629 629 0 0 1-15.479.55q-2.63.075-5.26.204c-14.528.701-14.528.701-18.617-2.732-1.582-2.62-2.628-5.14-3.644-8.022a115 115 0 0 0-2.352-4.176q-1.138-2.067-2.273-4.136a1925 1925 0 0 0-11.812-21.063l-1.54-2.72-1.457-2.553-1.283-2.256c-1.269-2.158-1.269-2.158-2.943-4.243C886 485 886 485 886 483c-8.587-3.168-8.587-3.168-29-3v58h-33z" fill="#eee"/>
  <path d="m656.508 377.902 2.547.005c2.69.005 5.38.018 8.07.03q2.732.009 5.465.014 6.705.017 13.41.049c3.376 6.424 6.015 12.984 8.555 19.777l1.285 3.409q1.341 3.563 2.677 7.128 2.016 5.373 4.042 10.743c3.93 10.442 7.811 20.892 11.473 31.432 1.71 4.881 3.634 9.637 5.664 14.392 2.742 6.558 5.215 13.225 7.741 19.869l1.659 4.344q4.468 11.714 8.86 23.456c1.3 3.474 2.61 6.944 3.942 10.407l.762 1.99q.745 1.944 1.5 3.883c1.097 2.881 1.84 5.057 1.84 8.17q-6.27.111-12.543.165a551 551 0 0 0-4.262.061 538 538 0 0 1-6.144.067l-3.73.048c-3.617-.371-5.451-1.149-8.321-3.341-1.555-2.652-1.555-2.652-2.875-5.937l-.731-1.8c-2.911-7.31-5.505-14.75-8.074-22.185l-.773-2.237C698 500 698 500 698 498h-67l-3 9a930 930 0 0 1-7.687 21.25l-1.2 3.203c-1.31 2.996-2.4 4.186-5.311 5.66-3.345 1.059-6.127 1.113-9.634 1.082l-3.916-.02-4.064-.05q-2.063-.016-4.124-.027-5.033-.036-10.064-.098c1.566-6.24 3.357-12.23 5.826-18.173 1.421-3.422 2.775-6.87 4.127-10.32l1.629-4.14 2.48-6.308a3171 3171 0 0 1 8.79-22.168c4.488-11.176 8.85-22.398 13.187-33.633 2.483-6.425 4.977-12.845 7.47-19.266q2.735-7.034 5.453-14.073 2.072-5.365 4.175-10.719a906 906 0 0 0 2.122-5.494c4.252-10.763 7.163-15.88 19.249-15.804" fill="#eeeded"/>
  <path d="M1047 306c8.11 3.813 14.587 10.878 21 17l2.156 1.996c26.823 25.56 45.272 63.12 52.844 99.004l.652 2.8c4.37 19.488 3.667 41.627.348 61.2q-.505 3.75-1 7.5c-.623 4.673-1.624 8.99-3 13.5l-.75 2.464c-9.354 30.282-23.594 58.15-45.332 81.466a86 86 0 0 0-4.48 5.258c-3.181 3.67-6.71 6.712-10.438 9.812l-2.305 2c-5.694 4.755-5.694 4.755-9.757 5.75-8.99-2.295-17.896-10.186-22.938-17.75-.492-2.39-.492-2.39 0-5a46.4 46.4 0 0 1 5.875-4.75q1.807-1.32 3.61-2.648l1.814-1.328c31.515-23.609 49.349-62.6 55.869-100.586 1.036-7.231 1.176-14.393 1.145-21.688l-.007-2.043c-.127-24.872-4.885-47.772-16.306-69.957l-1.355-2.77c-10.458-20.454-25.908-38.204-44.903-51.044-2.951-2.01-5.842-4.103-8.742-6.186 1.251-9.044 9.493-16.102 16-22 3.845-2.563 5.422-2.59 10-2" fill="#f88501"/>
  <path d="M486.563 305.063C495.48 307.495 503.966 316.448 509 324c.43 2.422.43 2.422 0 5-2.055 2.14-2.055 2.14-4.875 4.25l-3.062 2.375L498 338c-3.422 2.908-6.72 5.933-10 9l-1.508 1.389c-25.808 23.933-45.096 60.38-46.637 95.966-.025 3.82-.049 7.638-.043 11.457l.002 2.099c.04 16.349 1.349 31.355 6.186 47.089l1.02 3.527c4.681 15.236 11.682 30.5 20.98 43.473l2.113 2.969a184 184 0 0 0 13.746 16.68C486 574 486 574 488.22 576.862c3.293 3.986 7.396 6.892 11.531 9.95q2.305 1.727 4.61 3.457l2.045 1.518C508 593 508 593 509 594c.353 2.997.359 4.489-1.398 6.992-6.043 5.756-12.226 11.599-20.29 14.196-8.513-.482-14.457-7.63-20.312-13.188l-2.254-2.094c-34.69-33.263-57.088-84.202-58.858-131.927-.527-28.153 3.28-53.85 14.112-79.979l.885-2.138C428.354 368.22 438.793 351.735 451 337l1.433-1.752C458.78 327.51 465.305 320.438 473 314l2.598-2.324c3.602-3.114 6.322-5.392 10.964-6.613" fill="#f99a01"/>
  <path d="M995.858 354.183c16.772 4.36 34.06 28.701 43.142 42.817l1.126 1.71c15.921 24.526 19.872 57.588 14.128 85.977-6.802 29.911-21.123 54.278-42.254 76.313l-1.996 2.258-1.754 1.93-1.422 1.605c-2.936 1.938-5.34 2.111-8.828 2.207-7.032-3.056-14.272-7.921-19-14-.43-3.027-.419-4.426 1.402-6.922l1.965-1.828 2.17-2.073 2.338-2.177c21.537-20.84 35.462-46.742 36.328-77.2.416-29.364-9.987-50.904-30.14-71.886C987.938 387.675 982.58 382.745 977 378l-1-1c.205-5.963 2.166-9.088 6.25-13.188l1.45-1.537c1.397-1.46 2.848-2.869 4.3-4.275l2.484-2.426C993 354 993 354 995.858 354.184" fill="#f98d01"/>
  <path d="M536.46 354.363c7.471 1.874 13.078 9.863 17.481 15.813 1.122 1.932 1.63 3.64 2.059 5.824l-1.836 1.434C530.806 395.868 512.034 418.66 508 449c-2.655 29.994 7.363 57.914 26.355 80.844 5.301 6.058 10.947 11.74 17.707 16.156 1.938 2 1.938 2 2.375 5.188-1.493 6.613-8.675 10.877-13.89 14.53-3.332 2.04-5.405 3.274-9.383 3.302-4.466-1.44-6.864-4.096-10.039-7.457l-1.864-1.923c-4.755-4.964-9.185-10.1-13.261-15.64l-1.719-2.273c-20.81-28.473-32.399-63.348-27.707-98.688.64-4.056 1.506-8.038 2.426-12.039l.586-3.105c4.312-20.75 32.616-74.045 56.875-73.532" fill="#f99b01"/>
  <path d="M758 378h33v159h-33z" fill="#f1f0f1"/>
  <path d="m857 405 18.375-.312 5.736-.138c10.791-.151 18.264.782 26.827 7.887 5.722 7.11 5.934 13.735 5.062 22.563-1.642 6.752-5.16 11.325-11 15-8.863 4.163-18.593 3.337-28.125 3.188L857 453z" fill="#060609"/>
  <path d="M664 410c3.303 2.662 4.454 6.138 5.89 9.992l.806 2.104a1185 1185 0 0 1 2.554 6.779l1.755 4.64c3.236 8.595 6.389 17.215 9.308 25.923l.858 2.556C686.184 465.1 687 467.71 687 471h-45c.683-4.779 1.14-7.912 2.781-12.184l1.082-2.858L647 453q1.111-2.985 2.219-5.973l2.281-6.09 1.145-3.064c3.023-8.068 6.057-16.142 9.605-23.998l1.016-2.258z" fill="#09090c"/>
  <path d="M626 583h11l12 21c2.14-2.854 3.595-5 5.094-8.11l1.187-2.285a134 134 0 0 0 2.344-4.757c1.219-2.27 1.219-2.27 4.375-5.848h11v44h-10l-1-25-9 16h-7l-10-18-1 27h-9z" fill="#868687"/>
  <path d="m873 583 11.5-.25 3.576-.11c8.046-.085 13.104 1.208 19.424 6.423 2.333 4.568 2.375 8.92 1.5 13.937-1.396 2.607-2.786 3.944-5 6l-2 2 1.969 2.992 2.531 3.883 1.3 1.973c3.2 4.925 3.2 4.925 3.2 7.152-3.978 1.004-7.069 1.294-11 0-2.481-2.833-4.111-6.162-5.654-9.576-.984-2.048-1.832-3.725-3.346-5.424-2.823-.959-4.967-.978-8-1v16h-10z" fill="#888889"/>
  <path d="M815 583h33v9h-23v9h20v8h-20v10h23v8h-33z" fill="#858586"/>
  <path d="M701 583h32v9h-22v9h19v8h-20v10h23v8h-32z" fill="#848486"/>
  <path d="M755 583h37v8h-14v36h-10v-35h-13z" fill="#858586"/>
  <path d="M883 591c11.063-.486 11.063-.486 15.25 1.688C900 595 900 595 900.5 597.563c-.605 2.951-1.05 3.7-3.5 5.437-3.355.293-3.355.293-7.187.188l-3.856-.083L883 603z" fill="#0c0d10"/>
</svg>
